<?xml version="1.0" encoding="utf-8"?>
<!-- Generator: Adobe Illustrator 16.0.0, SVG Export Plug-In . SVG Version: 6.00 Build 0)  -->
<!DOCTYPE svg PUBLIC "-//W3C//DTD SVG 1.1//EN" "http://www.w3.org/Graphics/SVG/1.1/DTD/svg11.dtd">
<svg version="1.1" id="Layer_1" xmlns="http://www.w3.org/2000/svg" xmlns:xlink="http://www.w3.org/1999/xlink" x="0px" y="0px"
	 width="23.17px" height="17.5px" viewBox="0 0 23.17 17.5" enable-background="new 0 0 23.17 17.5" xml:space="preserve">
<g>
	<path fill="#C7C7C6" d="M12.88,4.48c0-1.355,0.444-2.439,1.33-3.256C15.097,0.408,16.217,0,17.569,0
		c1.635,0,2.976,0.535,4.025,1.609S23.17,4.223,23.17,6.23c0,2.145-0.618,4.258-1.854,6.334S18.34,16.285,16.1,17.5l-1.61-2.45
		c1.215-0.84,2.183-1.774,2.905-2.8c0.725-1.027,1.202-2.217,1.436-3.57c-0.42,0.186-0.91,0.28-1.471,0.28
		c-1.306,0-2.38-0.42-3.22-1.261C13.3,6.859,12.88,5.785,12.88,4.48z M0,4.48c0-1.355,0.443-2.439,1.33-3.256S3.337,0,4.689,0
		c1.635,0,2.976,0.535,4.025,1.609S10.29,4.223,10.29,6.23c0,2.145-0.618,4.258-1.855,6.334C7.199,14.641,5.46,16.285,3.22,17.5
		l-1.61-2.45c1.215-0.84,2.183-1.774,2.905-2.8c0.725-1.027,1.202-2.217,1.436-3.57C5.529,8.866,5.04,8.96,4.479,8.96
		c-1.306,0-2.38-0.42-3.22-1.261C0.42,6.859,0,5.785,0,4.48z"/>
</g>
</svg>
